<svg width="117" height="87" viewBox="0 0 117 87" fill="none" xmlns="http://www.w3.org/2000/svg">
<g clip-path="url(#clip0_102_416)">
<path d="M100.673 50.0766C96.6033 50.0975 93.0656 51.0694 90.1037 52.5063C89.0165 50.3721 87.9297 48.4708 87.7382 47.076C87.5248 45.4493 87.2693 44.4561 87.5248 42.5122C87.7807 40.5683 88.9315 37.8001 88.91 37.589C88.889 37.3778 88.6541 36.3846 86.3101 36.3637C83.9661 36.3424 81.9415 36.8073 81.7071 37.42C81.4726 38.0326 81.0252 39.4273 80.7268 40.8637C80.3219 42.9771 76.0388 50.5198 73.5883 54.471C72.7995 52.9291 72.1177 51.5765 71.9682 50.499C71.7553 48.8722 71.4993 47.879 71.7553 45.9351C72.0112 43.9912 73.1619 41.2235 73.1405 41.0119C73.119 40.8007 72.8845 39.8075 70.5405 39.7866C68.1961 39.7653 66.1715 40.2302 65.9376 40.8429C65.7031 41.4559 65.4472 42.8923 64.9573 44.2871C64.4669 45.6818 58.7771 58.275 57.2855 61.5285C56.6827 62.8453 56.0503 64.1487 55.3889 65.4376C55.3889 65.4376 55.3674 65.501 55.3034 65.6066C55.0956 66.0107 54.8827 66.4122 54.6645 66.811V66.8318C54.3446 67.4028 54.0037 67.9307 53.8332 67.9307C53.7053 67.9307 53.4708 66.4095 53.8757 64.3387C54.7281 59.9652 56.7526 53.1615 56.7316 52.9291C56.7316 52.8022 57.115 51.6191 55.4104 51.006C53.7478 50.3934 53.1514 51.4075 53.0019 51.4075C52.8529 51.4075 52.746 51.7668 52.746 51.7668C52.746 51.7668 54.6005 44.118 49.2088 44.118C45.842 44.118 41.196 47.7734 38.8945 51.0694C36.2782 52.4811 33.6641 53.8968 31.0523 55.3166C29.7955 56.0139 28.4953 56.7113 27.2806 57.3661C27.1951 57.2818 27.1101 57.1758 27.0247 57.0915C20.5036 50.1822 8.44225 45.3012 8.95364 36.0257C9.14558 32.6449 10.3174 23.7705 32.118 12.9947C50.0611 4.22583 64.3394 6.65549 66.8114 12.0436C70.3486 19.7349 59.161 34.0183 40.6207 36.0887C33.5457 36.8708 29.8375 34.1661 28.9002 33.152C27.9199 32.0953 27.7705 32.0318 27.4081 32.2435C26.8117 32.5606 27.1951 33.5113 27.4081 34.0605C27.9624 35.4969 30.2425 38.0326 34.0996 39.2796C37.5093 40.378 45.799 40.991 55.8363 37.1454C67.0668 32.8348 75.8469 20.8546 73.2684 10.8183C70.6895 0.633908 53.6413 -2.72556 37.5093 2.95799C27.9199 6.33921 17.5203 11.6634 10.0404 18.594C1.15388 26.834 -0.252795 33.997 0.322578 36.9976C2.39008 47.6465 17.2008 54.5771 23.125 59.7114C22.8266 59.8804 22.5492 60.0286 22.3152 60.1555C19.3529 61.6132 8.05836 67.4658 5.24547 73.6568C2.04916 80.6716 5.75732 85.7009 8.2078 86.3765C15.8156 88.4686 23.6364 84.7076 27.8345 78.4953C32.0326 72.2834 31.5212 64.2119 29.5821 60.5144C29.5606 60.4722 29.5396 60.4296 29.4966 60.3875C30.2639 59.9439 31.0523 59.479 31.8196 59.0354C33.2299 58.2088 34.658 57.4126 36.1031 56.6474C35.3783 58.6126 34.8454 60.958 34.59 64.3387C34.2701 68.3113 35.9107 73.4665 38.0632 75.4947C39.0225 76.3828 40.1518 76.4037 40.8766 76.4037C43.391 76.4037 44.5208 74.3329 45.778 71.8819C47.3122 68.8818 48.6974 65.3954 48.6974 65.3954C48.6974 65.3954 46.9712 74.8191 51.6597 74.8191C53.3643 74.8191 55.0905 72.6214 55.8578 71.5017V71.5226C55.8578 71.5226 55.9003 71.4592 55.9857 71.3114C56.1562 71.0368 56.2627 70.8674 56.2627 70.8674V70.8257C56.9445 69.6421 58.4792 66.9587 60.7592 62.5004C63.7 56.7534 66.5344 49.5696 66.5344 49.5696C66.5344 49.5696 66.7903 51.3232 67.6637 54.239C68.1755 55.9505 69.2404 57.831 70.0931 59.648C69.4113 60.5991 68.9849 61.127 68.9849 61.127L69.0064 61.1483C68.452 61.8665 67.8556 62.6481 67.1948 63.4094C64.8718 66.1558 62.1019 69.3045 61.718 70.2126C61.2701 71.2901 61.3771 72.0722 62.2298 72.7062C62.8477 73.1711 63.9555 73.234 65.0852 73.1711C67.1738 73.0229 68.644 72.5158 69.3683 72.1991C70.498 71.7976 71.8193 71.1846 73.055 70.276C75.3355 68.6067 76.7202 66.2192 76.5927 63.0714C76.5287 61.3386 75.9534 59.6059 75.25 57.9787C75.4634 57.6833 75.6549 57.3874 75.8683 57.0915C79.4696 51.8724 82.2614 46.1462 82.2614 46.1462C82.2614 46.1462 82.5174 47.8998 83.3907 50.8161C83.8171 52.2951 84.6909 53.901 85.4578 55.4643C82.0695 58.1903 79.981 61.3594 79.2351 63.4302C77.8929 67.2759 78.9367 69.0082 80.9187 69.4097C81.8136 69.6 83.0923 69.1772 84.0301 68.7757C85.2233 68.3956 86.63 67.7408 87.9727 66.7684C90.2531 65.0995 92.4477 62.775 92.3197 59.6272C92.2558 58.1903 91.8723 56.7743 91.3394 55.4009C94.2163 54.2182 97.9245 53.563 102.655 54.1122C112.799 55.2953 114.802 61.5706 114.418 64.2123C114.035 66.8531 111.904 68.29 111.201 68.7336C110.497 69.1777 110.263 69.3254 110.327 69.6421C110.412 70.107 110.753 70.0862 111.35 70.0014C112.181 69.8537 116.678 67.8672 116.869 63.0075C117.189 56.7956 111.222 50.0132 100.673 50.0766ZM22.4217 76.2346C19.0544 79.8687 14.3664 81.2421 12.3419 80.0803C10.1684 78.8333 11.0207 73.4665 15.1548 69.6213C17.6692 67.2759 20.9085 65.0991 23.061 63.7683C23.5509 63.4724 24.2758 63.0501 25.1496 62.5217C25.2985 62.437 25.384 62.3948 25.384 62.3948L25.8954 62.0776C27.4081 67.5713 25.9594 72.4103 22.4217 76.2346ZM46.9287 59.7114C45.7565 62.543 43.306 69.7903 41.8144 69.3888C40.5357 69.0508 39.7469 63.5571 41.5584 58.1269C42.4747 55.4009 44.4138 52.147 45.5436 50.8796C47.3762 48.8509 49.4007 48.1744 49.8906 48.9991C50.509 50.0766 47.6531 57.9365 46.9287 59.7114ZM67.1523 69.3041C66.6619 69.5578 66.1935 69.7269 65.9801 69.6C65.8311 69.5153 66.1935 69.1772 66.1935 69.1772C66.1935 69.1772 68.7294 66.473 69.7307 65.2473C70.3066 64.5291 70.988 63.684 71.7128 62.7329V63.0075C71.7128 66.2405 68.5585 68.4169 67.1518 69.3041H67.1523ZM82.7514 65.7756C82.3889 65.5219 82.4529 64.6768 83.6677 62.0355C84.1365 61.0001 85.2443 59.2678 87.1414 57.5985C87.3543 58.2746 87.5038 58.9298 87.4823 59.5424C87.4608 63.6205 84.5204 65.1417 82.7514 65.7756Z" fill="#CD6799"/>
</g>
<defs>
<clipPath id="clip0_102_416">
<rect width="117" height="87" fill="white"/>
</clipPath>
</defs>
</svg>
